# Blender v2.92.0 OBJ File: ''
# www.blender.org
o Cube
v 1.000000 1.000000 -1.000000
v 1.000000 -1.000000 -1.000000
v 1.000000 1.000000 1.000000
v 1.000000 -1.000000 1.000000
v -1.000000 1.000000 -1.000000
v -1.000000 -1.000000 -1.000000
v -1.000000 1.000000 1.000000
v -1.000000 -1.000000 1.000000
v -0.225677 0.999999 -0.740709
v -0.225677 0.838228 -0.740709
v -0.225677 0.999999 1.205807
v -0.225677 0.838228 1.205807
v 0.182898 0.999999 -0.740709
v 0.182898 0.838228 -0.740709
v 0.182898 0.999999 1.205807
v 0.182898 0.838228 1.205807
v -0.637044 -0.000001 -3.983976
v -0.637044 0.637578 -3.983976
v -0.637044 -0.000001 -5.196228
v -0.637044 0.637578 -5.196228
v 2.651326 -0.000001 -3.983976
v 2.651326 0.637578 -3.983976
v 2.651326 -0.000001 -5.196228
v 2.651326 0.637578 -5.196228
v 2.127063 0.000001 -1.274591
v 2.127063 1.877318 -1.274591
v 2.127063 0.000001 -1.303505
v 2.127063 1.877318 -1.303505
v 2.384158 0.000001 -1.274591
v 2.384158 1.877318 -1.274591
v 2.384158 0.000001 -1.303505
v 2.384158 1.877318 -1.303505
v -0.830777 -0.000001 5.740899
v -0.830777 7.732976 5.740899
v -0.830777 -0.000001 1.666962
v -0.830777 7.732976 1.666962
v 3.222003 -0.000001 5.740899
v 3.222003 7.732976 5.740899
v 3.222003 -0.000001 1.666962
v 3.222003 7.732976 1.666962
v -7.010472 0.000000 4.118516
v -7.010472 4.128043 4.118516
v -7.010472 0.000000 -1.565476
v -7.010472 4.128043 -1.565476
v -4.070683 0.000000 4.118516
v -4.070683 4.128043 4.118516
v -4.070683 0.000000 -1.565476
v -4.070683 4.128043 -1.565476
v -6.737935 0.000000 -3.949684
v -6.737935 3.979641 -3.949684
v -6.737935 0.000000 -4.397707
v -6.737935 3.979641 -4.397707
v -2.383427 0.000000 -3.949684
v -2.383427 3.979641 -3.949684
v -2.383427 0.000000 -4.397707
v -2.383427 3.979641 -4.397707
v -3.342373 0.000000 -6.755210
v -3.342373 3.203162 -6.755210
v -3.342373 0.000000 -8.745919
v -3.342373 3.203162 -8.745919
v -0.606214 0.000000 -6.755210
v -0.606214 3.203162 -6.755210
v -0.606214 0.000000 -8.745919
v -0.606214 3.203162 -8.745919
v 4.659674 0.000000 0.362925
v 4.659674 -1.516276 0.362926
v 4.659674 0.000000 1.022130
v 4.659674 -1.516276 1.022130
v 4.716671 0.000000 0.362925
v 4.716671 -1.516276 0.362926
v 4.716671 0.000000 1.022130
v 4.716671 -1.516276 1.022130
v -15.099086 0.000000 4.036139
v -15.099086 0.116926 4.036139
v -15.099086 0.000000 -9.148981
v -15.099086 0.116926 -9.148981
v 5.368279 0.000000 4.036139
v 5.368279 0.116926 4.036139
v 5.368279 0.000000 -9.148981
v 5.368279 0.116926 -9.148981
vt 0.875000 0.500000
vt 0.625000 0.750000
vt 0.625000 0.500000
vt 0.375000 1.000000
vt 0.375000 0.750000
vt 0.625000 0.000000
vt 0.375000 0.250000
vt 0.375000 0.000000
vt 0.375000 0.500000
vt 0.125000 0.750000
vt 0.125000 0.500000
vt 0.625000 0.250000
vt 0.625000 0.000000
vt 0.375000 0.250000
vt 0.375000 0.000000
vt 0.625000 0.250000
vt 0.375000 0.500000
vt 0.625000 0.500000
vt 0.375000 0.750000
vt 0.625000 0.750000
vt 0.375000 1.000000
vt 0.125000 0.750000
vt 0.125000 0.500000
vt 0.875000 0.500000
vt 0.625000 0.000000
vt 0.375000 0.250000
vt 0.375000 0.000000
vt 0.625000 0.250000
vt 0.375000 0.500000
vt 0.625000 0.500000
vt 0.375000 0.750000
vt 0.625000 0.750000
vt 0.375000 1.000000
vt 0.125000 0.750000
vt 0.125000 0.500000
vt 0.875000 0.500000
vt 0.625000 0.000000
vt 0.375000 0.250000
vt 0.375000 0.000000
vt 0.625000 0.250000
vt 0.375000 0.500000
vt 0.625000 0.500000
vt 0.375000 0.750000
vt 0.625000 0.750000
vt 0.375000 1.000000
vt 0.125000 0.750000
vt 0.125000 0.500000
vt 0.875000 0.500000
vt 0.625000 0.000000
vt 0.375000 0.250000
vt 0.375000 0.000000
vt 0.625000 0.250000
vt 0.375000 0.500000
vt 0.625000 0.500000
vt 0.375000 0.750000
vt 0.625000 0.750000
vt 0.375000 1.000000
vt 0.125000 0.750000
vt 0.125000 0.500000
vt 0.875000 0.500000
vt 0.625000 0.000000
vt 0.375000 0.250000
vt 0.375000 0.000000
vt 0.625000 0.250000
vt 0.375000 0.500000
vt 0.625000 0.500000
vt 0.375000 0.750000
vt 0.625000 0.750000
vt 0.375000 1.000000
vt 0.125000 0.750000
vt 0.125000 0.500000
vt 0.875000 0.500000
vt 0.625000 0.000000
vt 0.375000 0.250000
vt 0.375000 0.000000
vt 0.625000 0.250000
vt 0.375000 0.500000
vt 0.625000 0.500000
vt 0.375000 0.750000
vt 0.625000 0.750000
vt 0.375000 1.000000
vt 0.125000 0.750000
vt 0.125000 0.500000
vt 0.875000 0.500000
vt 0.625000 0.000000
vt 0.375000 0.250000
vt 0.375000 0.000000
vt 0.625000 0.250000
vt 0.375000 0.500000
vt 0.625000 0.500000
vt 0.375000 0.750000
vt 0.625000 0.750000
vt 0.375000 1.000000
vt 0.125000 0.750000
vt 0.125000 0.500000
vt 0.875000 0.500000
vt 0.625000 0.000000
vt 0.375000 0.250000
vt 0.375000 0.000000
vt 0.625000 0.250000
vt 0.375000 0.500000
vt 0.625000 0.500000
vt 0.375000 0.750000
vt 0.625000 0.750000
vt 0.375000 1.000000
vt 0.125000 0.750000
vt 0.125000 0.500000
vt 0.875000 0.500000
vt 0.625000 0.000000
vt 0.375000 0.250000
vt 0.375000 0.000000
vt 0.625000 0.250000
vt 0.375000 0.500000
vt 0.625000 0.500000
vt 0.375000 0.750000
vt 0.625000 0.750000
vt 0.375000 1.000000
vt 0.125000 0.750000
vt 0.125000 0.500000
vt 0.875000 0.500000
vt 0.875000 0.750000
vt 0.625000 1.000000
vt 0.625000 1.000000
vt 0.875000 0.750000
vt 0.625000 1.000000
vt 0.875000 0.750000
vt 0.625000 1.000000
vt 0.875000 0.750000
vt 0.625000 1.000000
vt 0.875000 0.750000
vt 0.625000 1.000000
vt 0.875000 0.750000
vt 0.625000 1.000000
vt 0.875000 0.750000
vt 0.625000 1.000000
vt 0.875000 0.750000
vt 0.625000 1.000000
vt 0.875000 0.750000
vt 0.625000 1.000000
vt 0.875000 0.750000
vn 0.0000 1.0000 0.0000
vn 0.0000 0.0000 1.0000
vn -1.0000 0.0000 0.0000
vn 0.0000 -1.0000 0.0000
vn 1.0000 0.0000 0.0000
vn 0.0000 0.0000 -1.0000
s off
f 5/1/1 3/2/1 1/3/1
f 3/2/2 8/4/2 4/5/2
f 7/6/3 6/7/3 8/8/3
f 2/9/4 8/10/4 6/11/4
f 1/3/5 4/5/5 2/9/5
f 5/12/6 2/9/6 6/7/6
f 10/13/3 11/14/3 9/15/3
f 12/16/2 15/17/2 11/14/2
f 16/18/5 13/19/5 15/17/5
f 14/20/6 9/21/6 13/19/6
f 15/17/1 9/22/1 11/23/1
f 12/24/4 14/20/4 16/18/4
f 18/25/3 19/26/3 17/27/3
f 20/28/6 23/29/6 19/26/6
f 24/30/5 21/31/5 23/29/5
f 22/32/2 17/33/2 21/31/2
f 23/29/4 17/34/4 19/35/4
f 20/36/1 22/32/1 24/30/1
f 26/37/3 27/38/3 25/39/3
f 28/40/6 31/41/6 27/38/6
f 32/42/5 29/43/5 31/41/5
f 30/44/2 25/45/2 29/43/2
f 31/41/4 25/46/4 27/47/4
f 28/48/1 30/44/1 32/42/1
f 34/49/3 35/50/3 33/51/3
f 36/52/6 39/53/6 35/50/6
f 40/54/5 37/55/5 39/53/5
f 38/56/2 33/57/2 37/55/2
f 39/53/4 33/58/4 35/59/4
f 36/60/1 38/56/1 40/54/1
f 42/61/3 43/62/3 41/63/3
f 44/64/6 47/65/6 43/62/6
f 48/66/5 45/67/5 47/65/5
f 46/68/2 41/69/2 45/67/2
f 47/65/4 41/70/4 43/71/4
f 44/72/1 46/68/1 48/66/1
f 50/73/3 51/74/3 49/75/3
f 52/76/6 55/77/6 51/74/6
f 56/78/5 53/79/5 55/77/5
f 54/80/2 49/81/2 53/79/2
f 55/77/4 49/82/4 51/83/4
f 52/84/1 54/80/1 56/78/1
f 58/85/3 59/86/3 57/87/3
f 60/88/6 63/89/6 59/86/6
f 64/90/5 61/91/5 63/89/5
f 62/92/2 57/93/2 61/91/2
f 63/89/4 57/94/4 59/95/4
f 60/96/1 62/92/1 64/90/1
f 66/97/3 67/98/3 65/99/3
f 68/100/2 71/101/2 67/98/2
f 72/102/5 69/103/5 71/101/5
f 70/104/6 65/105/6 69/103/6
f 71/101/1 65/106/1 67/107/1
f 68/108/4 70/104/4 72/102/4
f 74/109/3 75/110/3 73/111/3
f 76/112/6 79/113/6 75/110/6
f 80/114/5 77/115/5 79/113/5
f 78/116/2 73/117/2 77/115/2
f 79/113/4 73/118/4 75/119/4
f 76/120/1 78/116/1 80/114/1
f 5/1/1 7/121/1 3/2/1
f 3/2/2 7/122/2 8/4/2
f 7/6/3 5/12/3 6/7/3
f 2/9/4 4/5/4 8/10/4
f 1/3/5 3/2/5 4/5/5
f 5/12/6 1/3/6 2/9/6
f 10/13/3 12/16/3 11/14/3
f 12/16/2 16/18/2 15/17/2
f 16/18/5 14/20/5 13/19/5
f 14/20/6 10/123/6 9/21/6
f 15/17/1 13/19/1 9/22/1
f 12/24/4 10/124/4 14/20/4
f 18/25/3 20/28/3 19/26/3
f 20/28/6 24/30/6 23/29/6
f 24/30/5 22/32/5 21/31/5
f 22/32/2 18/125/2 17/33/2
f 23/29/4 21/31/4 17/34/4
f 20/36/1 18/126/1 22/32/1
f 26/37/3 28/40/3 27/38/3
f 28/40/6 32/42/6 31/41/6
f 32/42/5 30/44/5 29/43/5
f 30/44/2 26/127/2 25/45/2
f 31/41/4 29/43/4 25/46/4
f 28/48/1 26/128/1 30/44/1
f 34/49/3 36/52/3 35/50/3
f 36/52/6 40/54/6 39/53/6
f 40/54/5 38/56/5 37/55/5
f 38/56/2 34/129/2 33/57/2
f 39/53/4 37/55/4 33/58/4
f 36/60/1 34/130/1 38/56/1
f 42/61/3 44/64/3 43/62/3
f 44/64/6 48/66/6 47/65/6
f 48/66/5 46/68/5 45/67/5
f 46/68/2 42/131/2 41/69/2
f 47/65/4 45/67/4 41/70/4
f 44/72/1 42/132/1 46/68/1
f 50/73/3 52/76/3 51/74/3
f 52/76/6 56/78/6 55/77/6
f 56/78/5 54/80/5 53/79/5
f 54/80/2 50/133/2 49/81/2
f 55/77/4 53/79/4 49/82/4
f 52/84/1 50/134/1 54/80/1
f 58/85/3 60/88/3 59/86/3
f 60/88/6 64/90/6 63/89/6
f 64/90/5 62/92/5 61/91/5
f 62/92/2 58/135/2 57/93/2
f 63/89/4 61/91/4 57/94/4
f 60/96/1 58/136/1 62/92/1
f 66/97/3 68/100/3 67/98/3
f 68/100/2 72/102/2 71/101/2
f 72/102/5 70/104/5 69/103/5
f 70/104/6 66/137/6 65/105/6
f 71/101/1 69/103/1 65/106/1
f 68/108/4 66/138/4 70/104/4
f 74/109/3 76/112/3 75/110/3
f 76/112/6 80/114/6 79/113/6
f 80/114/5 78/116/5 77/115/5
f 78/116/2 74/139/2 73/117/2
f 79/113/4 77/115/4 73/118/4
f 76/120/1 74/140/1 78/116/1
